<svg width="541" height="311" viewBox="0 0 541 311" fill="none" xmlns="http://www.w3.org/2000/svg">
<path d="M337.333 236.445L93.2777 6.44495C89.5667 2.94771 84.6601 1 79.5609 1H20.5C9.45431 1 0.5 9.95431 0.5 21V251C0.5 262.046 9.45431 271 20.5 271H56H95.5H323.616C341.722 271 350.509 248.862 337.333 236.445Z" fill="black"/>
<path d="M457.172 304.805L214.61 67.8052C201.785 55.2745 210.657 33.5 228.587 33.5H292.966C298.418 33.5 303.633 35.7252 307.405 39.6608L534.566 276.661C546.754 289.377 537.741 310.5 520.127 310.5H471.149C465.925 310.5 460.908 308.456 457.172 304.805Z" fill="black"/>
<path d="M337.333 236.445L93.2777 6.44495C89.5667 2.94771 84.6601 1 79.5609 1H20.5C9.45431 1 0.5 9.95431 0.5 21V251C0.5 262.046 9.45431 271 20.5 271H56H95.5H323.616C341.722 271 350.509 248.862 337.333 236.445Z" stroke="black"/>
<path d="M457.172 304.805L214.61 67.8052C201.785 55.2745 210.657 33.5 228.587 33.5H292.966C298.418 33.5 303.633 35.7252 307.405 39.6608L534.566 276.661C546.754 289.377 537.741 310.5 520.127 310.5H471.149C465.925 310.5 460.908 308.456 457.172 304.805Z" stroke="black"/>
</svg>
